<svg viewBox="0 0 130 28" fill="none" xmlns="http://www.w3.org/2000/svg">
<path d="M42.3078 5.65756C40.5974 5.65756 39.2159 6.44699 38.4923 7.56534V6.11806H33.7557V20.3277H38.5581V13.2229C38.5581 10.7888 39.9396 9.93363 40.9263 9.93363C41.9789 9.93363 43.2946 10.3941 43.2946 12.7624V20.3277H48.0312V12.2361C48.0312 7.82849 45.334 5.65756 42.3078 5.65756Z" fill="#2A3ECB"/>
<path d="M59.0174 5.65756C54.0835 5.65756 51.1231 9.01263 51.1231 13.2229C51.1231 17.4332 54.0835 20.7882 59.0174 20.7882C61.3199 20.7882 63.2277 19.933 64.8065 18.42L62.3725 15.2623C61.5172 16.0517 60.2673 16.6438 58.82 16.6438C58.228 16.6438 57.7017 16.578 57.3727 16.3806L65.7933 11.3809C64.6749 6.57856 61.0567 5.65756 59.0174 5.65756ZM55.6623 13.486C55.3992 11.2493 57.0438 9.80205 59.0174 9.80205C59.8068 9.80205 60.3331 10.1968 60.5305 10.5915L55.6623 13.486Z" fill="#2A3ECB"/>
<path d="M75.99 5.65756C71.1876 5.65756 67.9641 9.01263 67.9641 13.2229C67.9641 17.4332 71.2534 20.7882 75.99 20.7882C80.5292 20.7882 84.0158 17.4332 84.0158 13.2229C84.0158 9.01263 80.4634 5.65756 75.99 5.65756ZM75.99 16.5122C74.148 16.5122 72.7007 15.0649 72.7007 13.2229C72.7007 11.3809 74.148 9.93363 75.99 9.93363C77.832 9.93363 79.2793 11.3809 79.2793 13.2229C79.2793 14.9991 77.832 16.5122 75.99 16.5122Z" fill="#2A3ECB"/>
<path d="M95.1994 6.8417C93.4232 6.8417 91.9759 7.56534 90.9234 8.74948V7.10484H88.0946V27.4326H90.9234V18.6173C91.9102 19.8015 93.4232 20.5251 95.1994 20.5251C98.8834 20.5251 101.844 17.4332 101.844 13.6834C101.778 9.86783 98.8176 6.8417 95.1994 6.8417ZM94.9363 17.9595C92.6338 17.9595 90.9234 16.0517 90.9234 13.6834C90.9234 11.3151 92.6996 9.40734 94.9363 9.40734C97.2388 9.40734 98.9492 11.3151 98.9492 13.6834C98.9492 15.9859 97.2388 17.9595 94.9363 17.9595Z" fill="#2A3ECB"/>
<path d="M108.949 9.14419V7.03905H106.12V20.262H108.949V14.3413C108.949 12.3019 109.475 10.5915 111.317 9.93362C112.172 9.67048 112.961 9.67048 113.685 9.80205V6.77591C111.251 6.8417 109.804 7.63112 108.949 9.14419Z" fill="#2A3ECB"/>
<path d="M123.158 6.8417C119.343 6.8417 116.317 9.93362 116.317 13.6834C116.317 17.499 119.409 20.5251 123.158 20.5251C126.974 20.5251 130 17.4332 130 13.6834C130 9.86783 126.908 6.8417 123.158 6.8417ZM123.158 17.9595C120.987 17.9595 119.145 15.9859 119.145 13.6834C119.145 11.3809 120.987 9.40734 123.158 9.40734C125.329 9.40734 127.171 11.3809 127.171 13.6834C127.171 15.9859 125.329 17.9595 123.158 17.9595Z" fill="#2A3ECB"/>
<path d="M23.23 0H1.12603C0.139245 0 -0.38704 1.24993 0.336602 1.97357L22.3748 24.0117C23.0984 24.7354 24.3483 24.2091 24.3483 23.2223V1.11836C24.3483 0.526285 23.8221 0 23.23 0V0ZM16.7172 12.3019C14.0858 12.3019 11.9807 10.1968 11.9807 7.56534C11.9807 4.93392 14.0858 2.82878 16.7172 2.82878C19.3486 2.82878 21.4538 4.99971 21.4538 7.63113C21.4538 10.2626 19.3486 12.3019 16.7172 12.3019Z" fill="#2A3ECB"/>
<path d="M5.92834 23.1565C8.54427 23.1565 10.6649 21.0359 10.6649 18.42C10.6649 15.804 8.54427 13.6834 5.92834 13.6834C3.3124 13.6834 1.19177 15.804 1.19177 18.42C1.19177 21.0359 3.3124 23.1565 5.92834 23.1565Z" fill="#2A3ECB"/>
</svg>
